<svg xmlns="http://www.w3.org/2000/svg" width="22" height="22" fill="none" class="cursor-pointer"><path fill="#8AACF4" d="M11.353 4.258c-.232 0-.42-.21-.42-.47V.47c0-.261.188-.471.42-.471.233 0 .423.21.423.471v3.316c0 .261-.19.471-.423.471zM16.323 11a5.323 5.323 0 11-10.645 0 5.323 5.323 0 0110.645 0zm1.893.776h3.313c.261 0 .471-.19.471-.423 0-.232-.21-.42-.471-.42h-3.313c-.26 0-.474.188-.474.42 0 .233.213.423.474.423zM11.353 22c-.232 0-.42-.213-.42-.474v-3.313c0-.261.188-.471.42-.471.233 0 .423.21.423.47v3.311c0 .26-.19.477-.423.477zM.473 11.776h3.311c.261 0 .474-.19.474-.423 0-.232-.213-.42-.474-.42H.474c-.264 0-.474.188-.474.42 0 .233.21.423.474.423zM5.98 6.387a.4.4 0 01-.289-.12L3.668 4.248a.41.41 0 010-.58.403.403 0 01.577 0l2.023 2.02a.407.407 0 01-.289.698zm10.465-.12a.412.412 0 00.579 0l2.017-2.018a.406.406 0 000-.58.403.403 0 00-.576 0l-2.02 2.02a.403.403 0 000 .577zm2.308 12.894a.4.4 0 01-.288-.118l-2.02-2.021a.41.41 0 01.579-.58l2.017 2.024a.403.403 0 010 .577.405.405 0 01-.288.118zm-15.084-.118c.08.08.184.118.288.118a.405.405 0 00.288-.118l2.024-2.021a.411.411 0 000-.58.407.407 0 00-.577 0l-2.023 2.024a.408.408 0 000 .577z"></path></svg>